<svg width="42" height="52" viewBox="0 0 42 52" fill="none" xmlns="http://www.w3.org/2000/svg">
<path d="M21 52C20.3875 52 19.775 51.8879 19.1625 51.6637C18.55 51.4394 18.0031 51.1031 17.5219 50.6546C14.6781 47.9638 12.1625 45.3402 9.975 42.784C7.7875 40.2277 5.96094 37.7499 4.49531 35.3506C3.02969 32.9513 1.91406 30.6417 1.14844 28.4217C0.382813 26.2018 0 24.0828 0 22.0647C0 15.3376 2.11094 9.97844 6.33281 5.98706C10.5547 1.99569 15.4438 0 21 0C26.5563 0 31.4453 1.99569 35.6672 5.98706C39.8891 9.97844 42 15.3376 42 22.0647C42 24.0828 41.6172 26.2018 40.8516 28.4217C40.0859 30.6417 38.9703 32.9513 37.5047 35.3506C36.0391 37.7499 34.2125 40.2277 32.025 42.784C29.8375 45.3402 27.3219 47.9638 24.4781 50.6546C23.9969 51.1031 23.45 51.4394 22.8375 51.6637C22.225 51.8879 21.6125 52 21 52ZM21 26.9082C22.4438 26.9082 23.6797 26.3812 24.7078 25.3273C25.7359 24.2734 26.25 23.0065 26.25 21.5265C26.25 20.0466 25.7359 18.7796 24.7078 17.7257C23.6797 16.6718 22.4438 16.1449 21 16.1449C19.5563 16.1449 18.3203 16.6718 17.2922 17.7257C16.2641 18.7796 15.75 20.0466 15.75 21.5265C15.75 23.0065 16.2641 24.2734 17.2922 25.3273C18.3203 26.3812 19.5563 26.9082 21 26.9082Z" fill="#7B5BD1"/>
</svg>
