<svg width="46" height="56" viewBox="0 0 46 56" fill="none" xmlns="http://www.w3.org/2000/svg">
<path d="M19.9813 24.6313L17.9688 22.6028C17.3937 22.0233 16.7229 21.7335 15.9563 21.7335C15.1896 21.7335 14.5187 22.0233 13.9437 22.6028C13.3687 23.1824 13.0813 23.8706 13.0813 24.6675C13.0813 25.4644 13.3687 26.1527 13.9437 26.7322L17.9688 30.8616C18.5438 31.4411 19.2146 31.7309 19.9813 31.7309C20.7479 31.7309 21.4188 31.4411 21.9938 30.8616L32.2 20.5744C32.775 19.9948 33.0625 19.3066 33.0625 18.5097C33.0625 17.7128 32.775 17.0246 32.2 16.445C31.625 15.8655 30.9422 15.5757 30.1516 15.5757C29.3609 15.5757 28.6781 15.8655 28.1031 16.445L19.9813 24.6313ZM46 23.762C46 25.9353 45.5807 28.2173 44.7422 30.608C43.9036 32.9987 42.6818 35.486 41.0766 38.0699C39.4714 40.6537 37.4708 43.3221 35.075 46.075C32.6792 48.8279 29.924 51.6533 26.8094 54.5511C26.2823 55.0341 25.6833 55.3963 25.0125 55.6378C24.3417 55.8793 23.6708 56 23 56C22.3292 56 21.6583 55.8793 20.9875 55.6378C20.3167 55.3963 19.7177 55.0341 19.1906 54.5511C16.076 51.6533 13.3208 48.8279 10.925 46.075C8.52917 43.3221 6.52865 40.6537 4.92344 38.0699C3.31823 35.486 2.09635 32.9987 1.25781 30.608C0.419271 28.2173 0 25.9353 0 23.762C0 16.5175 2.31198 10.746 6.93594 6.44761C11.5599 2.1492 16.9146 0 23 0C29.0854 0 34.4401 2.1492 39.0641 6.44761C43.688 10.746 46 16.5175 46 23.762Z" fill="#386569"/>
</svg>
