<svg width="46" height="56" viewBox="0 0 46 56" fill="none" xmlns="http://www.w3.org/2000/svg">
<path fill-rule="evenodd" clip-rule="evenodd" d="M20.9875 55.6378C21.6583 55.8793 22.3292 56 23 56C23.6708 56 24.3417 55.8793 25.0125 55.6378C25.6833 55.3963 26.2823 55.0341 26.8094 54.5511C29.924 51.6533 32.6792 48.8279 35.075 46.075C37.4708 43.3221 39.4714 40.6537 41.0766 38.0699C42.6818 35.486 43.9036 32.9987 44.7422 30.608C45.5807 28.2173 46 25.9353 46 23.762C46 16.5175 43.688 10.746 39.0641 6.44761C34.4401 2.1492 29.0854 0 23 0C16.9146 0 11.5599 2.1492 6.93594 6.44761C2.31198 10.746 0 16.5175 0 23.762C0 25.9353 0.419271 28.2173 1.25781 30.608C2.09635 32.9987 3.31823 35.486 4.92344 38.0699C6.52865 40.6537 8.52917 43.3221 10.925 46.075C13.3208 48.8279 16.076 51.6533 19.1906 54.5511C19.7177 55.0341 20.3167 55.3963 20.9875 55.6378ZM21 31V27H24C25.6667 27 27.0833 26.4167 28.25 25.25C29.4167 24.0833 30 22.6667 30 21C30 19.3333 29.4167 17.9167 28.25 16.75C27.0833 15.5833 25.6667 15 24 15H19C18.45 15 17.9792 15.1958 17.5875 15.5875C17.1958 15.9792 17 16.45 17 17V31C17 31.55 17.1958 32.0208 17.5875 32.4125C17.9792 32.8042 18.45 33 19 33C19.55 33 20.0208 32.8042 20.4125 32.4125C20.8042 32.0208 21 31.55 21 31ZM24.2 23H21V19H24.2C24.75 19 25.2208 19.1958 25.6125 19.5875C26.0042 19.9792 26.2 20.45 26.2 21C26.2 21.55 26.0042 22.0208 25.6125 22.4125C25.2208 22.8042 24.75 23 24.2 23Z" fill="#212274"/>
</svg>
