<svg width="46" height="56" viewBox="0 0 46 56" fill="none" xmlns="http://www.w3.org/2000/svg">
<path d="M14.375 31.8758H20.125V23.9069H25.875V31.8758H31.625V18.1113L23 12.3157L14.375 18.1113V31.8758ZM23 56C22.3292 56 21.6583 55.8793 20.9875 55.6378C20.3167 55.3963 19.7177 55.0341 19.1906 54.5511C16.076 51.6533 13.3208 48.8279 10.925 46.075C8.52917 43.3221 6.52865 40.6537 4.92344 38.0699C3.31823 35.486 2.09635 32.9987 1.25781 30.608C0.419271 28.2173 0 25.9353 0 23.762C0 16.5175 2.31198 10.746 6.93594 6.44761C11.5599 2.1492 16.9146 0 23 0C29.0854 0 34.4401 2.1492 39.0641 6.44761C43.688 10.746 46 16.5175 46 23.762C46 25.9353 45.5807 28.2173 44.7422 30.608C43.9036 32.9987 42.6818 35.486 41.0766 38.0699C39.4714 40.6537 37.4708 43.3221 35.075 46.075C32.6792 48.8279 29.924 51.6533 26.8094 54.5511C26.2823 55.0341 25.6833 55.3963 25.0125 55.6378C24.3417 55.8793 23.6708 56 23 56Z" fill="#BA1A1A"/>
</svg>
